<svg xmlns="http://www.w3.org/2000/svg" width="90" height="90" viewBox="0 0 90 90">
  <defs>
    <clipPath id="clip-circle">
      <circle cx="45" cy="45" r="45"/>
    </clipPath>
  </defs>
  <g clip-path="url(#clip-circle)">
    <path d="M0 0h90v90H0z" fill="#34A4A8"/>
    <path d="M0 0h90v90H0z" fill="#34A4A8"/>
    <path d="M15.645 7.789-.216 29.558 24.216 58.43 42.355 37.062z" fill="#FAFAFA"/>
    <path d="M7.91 15.381 26.05 37.062l7.759-8.16L15.645 7.79z" fill="#34A4A8"/>
    <path d="M35.97 41.484 16.77 64.059 33.682 82.211 55.07 58.834z" fill="#FAFAFA"/>
    <path d="M27.482 49.95 48.68 75.014l6.39-7.012-20.198-24.52z" fill="#34A4A8"/>
    <path d="M62.346 20.398 46.364 39.076 69.82 67.148 86.19 46.395z" fill="#34A4A8"/>
    <path d="M67.498 33.203 79.84 47.92l-6.964 8.162L60.64 42.117z" fill="#FAFAFA"/>
    <path d="M71.967 27.672 85.316 43.191l4.683-5.42-13.35-15.52z" fill="#34A4A8"/>
    <path d="M46.364 48.79 61.542 67.867 43.255 90 28.284 71.834z" fill="#34A4A8"/>
    <path d="M51.41 54.492 61.742 67.867l-5.647 6.37-10.532-12.633z" fill="#FAFAFA"/>
    <path d="M55.656 49.537 66.39 62.13l3.984-4.608-10.734-12.633z" fill="#34A4A8"/>
  </g>
</svg>
